<svg width="38" height="38" viewBox="0 0 38 38" fill="none" xmlns="http://www.w3.org/2000/svg">
<g clip-path="url(#clip0)">
<rect width="38" height="38" fill="white"/>
<rect width="40.1111" height="40.1111" fill="#FFF9F9"/>
<path d="M31 14V6.29975C31 5.50937 30.5345 4.79313 29.8123 4.47212L27.3625 3.38333C26.8164 3.14061 26.1903 3.15483 25.6558 3.4221L22.5 5" stroke="#FF498B" stroke-width="3" stroke-linecap="round" stroke-linejoin="round"/>
<path d="M1.5 17C1.5 16.1716 2.17157 15.5 3 15.5H35C35.8284 15.5 36.5 16.1716 36.5 17V20C36.5 20.8284 35.8284 21.5 35 21.5H3C2.17157 21.5 1.5 20.8284 1.5 20V17Z" stroke="#152C5B" stroke-width="3" stroke-linecap="round" stroke-linejoin="round"/>
<path d="M5.5 21.5H32.5V30C32.5 31.3807 31.3807 32.5 30 32.5H8C6.61929 32.5 5.5 31.3807 5.5 30V21.5Z" stroke="#152C5B" stroke-width="3" stroke-linecap="round" stroke-linejoin="round"/>
<path d="M10 33V36" stroke="#152C5B" stroke-width="3" stroke-linecap="round" stroke-linejoin="round"/>
<path d="M28 33V36" stroke="#152C5B" stroke-width="3" stroke-linecap="round" stroke-linejoin="round"/>
</g>
<defs>
<clipPath id="clip0">
<rect width="38" height="38" fill="white"/>
</clipPath>
</defs>
</svg>
