<svg width="36" height="36" viewBox="0 0 36 36" fill="none" xmlns="http://www.w3.org/2000/svg">
<rect width="36" height="36" fill="#FFF9F9"/>
<path d="M19 30.5C19 31.4856 18.2608 32.5935 16.5891 33.5129C14.9535 34.4125 12.6258 35 10 35C7.37422 35 5.04651 34.4125 3.41085 33.5129C1.73919 32.5935 0.999999 31.4856 0.999999 30.5C0.999999 29.5144 1.73919 28.4065 3.41085 27.4871C5.04651 26.5875 7.37422 26 10 26C12.6258 26 14.9535 26.5875 16.5891 27.4871C18.2608 28.4065 19 29.5144 19 30.5Z" stroke="#152C5B" stroke-width="2" stroke-linecap="round" stroke-linejoin="round"/>
<path d="M19 8.53333C19 10.7309 17.9191 16.4778 16.1251 21.7096C15.2318 24.315 14.1861 26.7177 13.0552 28.4493C12.4897 29.3152 11.9288 29.9726 11.3898 30.4048C10.8536 30.8348 10.3938 31 10 31C9.60618 31 9.14642 30.8348 8.61024 30.4048C8.0712 29.9726 7.51034 29.3152 6.9448 28.4493C5.8139 26.7177 4.76823 24.315 3.87487 21.7096C2.0809 16.4778 1 10.7309 1 8.53333C1 4.51567 4.8748 1 10 1C15.1252 1 19 4.51567 19 8.53333Z" fill="white" stroke="#152C5B" stroke-width="2" stroke-linecap="round" stroke-linejoin="round"/>
<circle cx="10" cy="10" r="4" stroke="#FF498B" stroke-width="2" stroke-linecap="round" stroke-linejoin="round"/>
</svg>
