<svg width="36" height="36" viewBox="0 0 36 36" fill="none" xmlns="http://www.w3.org/2000/svg">
<rect width="36" height="36" fill="#FFF9F9"/>
<mask id="path-2-inside-1" fill="white">
<path fill-rule="evenodd" clip-rule="evenodd" d="M22.375 10H13.625L12.575 14H6C2.68629 14 0 16.6863 0 20V30C0 33.3137 2.68629 36 6 36H30C33.3137 36 36 33.3137 36 30V20C36 16.6863 33.3137 14 30 14H23.425L22.375 10Z"/>
</mask>
<path d="M13.625 10V8H12.0822L11.6905 9.4922L13.625 10ZM22.375 10L24.3095 9.4922L23.9178 8H22.375V10ZM12.575 14V16H14.1178L14.5095 14.5078L12.575 14ZM23.425 14L21.4905 14.5078L21.8822 16H23.425V14ZM13.625 12H22.375V8H13.625V12ZM14.5095 14.5078L15.5595 10.5078L11.6905 9.4922L10.6405 13.4922L14.5095 14.5078ZM6 16H12.575V12H6V16ZM2 20C2 17.7909 3.79086 16 6 16V12C1.58172 12 -2 15.5817 -2 20H2ZM2 30V20H-2V30H2ZM6 34C3.79086 34 2 32.2091 2 30H-2C-2 34.4183 1.58172 38 6 38V34ZM30 34H6V38H30V34ZM34 30C34 32.2091 32.2091 34 30 34V38C34.4183 38 38 34.4183 38 30H34ZM34 20V30H38V20H34ZM30 16C32.2091 16 34 17.7909 34 20H38C38 15.5817 34.4183 12 30 12V16ZM23.425 16H30V12H23.425V16ZM20.4405 10.5078L21.4905 14.5078L25.3595 13.4922L24.3095 9.4922L20.4405 10.5078Z" fill="#152C5B" mask="url(#path-2-inside-1)"/>
<path d="M30 19H26" stroke="#152C5B" stroke-width="2" stroke-linecap="round" stroke-linejoin="round"/>
<circle cx="18" cy="25" r="5" stroke="#FF498B" stroke-width="2" stroke-linecap="round" stroke-linejoin="round"/>
</svg>
